<svg xmlns="http://www.w3.org/2000/svg" width="20" height="20" viewBox="0 0 512 512">
  <path d="M 71.5 0 C 32.075 0 0 32.075 0 71.5 C 0 110.925 32.075 143 71.5 143 C 110.925 143 143 110.925 143 71.5 C 143 32.075 110.925 0 71.5 0 Z M 71.5 128 C 40.346 128 15 102.654 15 71.5 C 15 40.346 40.346 15 71.5 15 C 102.654 15 128 40.346 128 71.5 C 128 102.654 102.654 128 71.5 128 Z" class="tripetto-fill" />
  <path d="M 71.5 160 C 32.075 160 0 192.075 0 231.5 C 0 270.925 32.075 303 71.5 303 C 110.925 303 143 270.925 143 231.5 C 143 192.075 110.925 160 71.5 160 Z M 71.5 288 C 40.346 288 15 262.654 15 231.5 C 15 200.346 40.346 175 71.5 175 C 102.654 175 128 200.346 128 231.5 C 128 262.654 102.654 288 71.5 288 Z" class="tripetto-fill" />
  <path d="M 71.5 320 C 32.075 320 0 352.075 0 391.5 C 0 430.925 32.075 463 71.5 463 C 110.925 463 143 430.925 143 391.5 C 143 352.075 110.925 320 71.5 320 Z M 71.5 448 C 40.346 448 15 422.654 15 391.5 C 15 360.346 40.346 335 71.5 335 C 102.654 335 128 360.346 128 391.5 C 128 422.654 102.654 448 71.5 448 Z" class="tripetto-fill" />
  <path d="M 90.196 50.197 L 63.5 76.894 L 52.804 66.197 C 49.874 63.268 45.126 63.268 42.197 66.197 C 39.268 69.126 39.268 73.875 42.197 76.803 L 58.197 92.803 C 59.661 94.268 61.581 95 63.5 95 C 65.419 95 67.339 94.268 68.804 92.803 L 100.804 60.803 C 103.733 57.874 103.733 53.125 100.804 50.197 C 97.874 47.268 93.126 47.268 90.196 50.197 Z" class="tripetto-fill" />
  <path d="M 90.196 210.197 L 63.5 236.894 L 52.804 226.197 C 49.874 223.268 45.126 223.268 42.197 226.197 C 39.268 229.126 39.268 233.875 42.197 236.803 L 58.197 252.803 C 59.661 254.268 61.581 255 63.5 255 C 65.419 255 67.339 254.268 68.804 252.803 L 100.804 220.803 C 103.733 217.874 103.733 213.125 100.804 210.197 C 97.874 207.268 93.126 207.268 90.196 210.197 Z" class="tripetto-fill" />
  <path d="M 175.5 55 L 319.5 55 C 323.643 55 327 51.642 327 47.5 C 327 43.358 323.643 40 319.5 40 L 175.5 40 C 171.357 40 168 43.358 168 47.5 C 168 51.642 171.357 55 175.5 55 Z" class="tripetto-fill" />
  <path d="M 175.5 103 L 455.5 103 C 459.643 103 463 99.642 463 95.5 C 463 91.358 459.643 88 455.5 88 L 175.5 88 C 171.357 88 168 91.358 168 95.5 C 168 99.642 171.357 103 175.5 103 Z" class="tripetto-fill" />
  <path d="M 175.5 215 L 319.5 215 C 323.643 215 327 211.642 327 207.5 C 327 203.358 323.643 200 319.5 200 L 175.5 200 C 171.357 200 168 203.358 168 207.5 C 168 211.642 171.357 215 175.5 215 Z" class="tripetto-fill" />
  <path d="M 455.5 248 L 175.5 248 C 171.357 248 168 251.358 168 255.5 C 168 259.642 171.357 263 175.5 263 L 455.5 263 C 459.643 263 463 259.642 463 255.5 C 463 251.358 459.643 248 455.5 248 Z" class="tripetto-fill" />
  <path d="M 175.5 375 L 319.5 375 C 323.643 375 327 371.642 327 367.5 C 327 363.358 323.643 360 319.5 360 L 175.5 360 C 171.357 360 168 363.358 168 367.5 C 168 371.642 171.357 375 175.5 375 Z" class="tripetto-fill" />
  <path d="M 455.5 408 L 175.5 408 C 171.357 408 168 411.358 168 415.5 C 168 419.642 171.357 423 175.5 423 L 455.5 423 C 459.643 423 463 419.642 463 415.5 C 463 411.358 459.643 408 455.5 408 Z" class="tripetto-fill" />
</svg>